<?xml version="1.0" encoding="utf-8"?>
<!-- Generator: Adobe Illustrator 19.0.0, SVG Export Plug-In . SVG Version: 6.00 Build 0)  -->
<svg version="1.1" id="elements" xmlns="http://www.w3.org/2000/svg" xmlns:xlink="http://www.w3.org/1999/xlink" x="0px" y="0px"
	 viewBox="0 0 1400 980" style="enable-background:new 0 0 1400 980;" xml:space="preserve">
<style type="text/css">
	.st0{fill:#FFFFFF;}
	.st1{font-family:'Lobster1.3';}
	.st2{font-size:172.1887px;}
</style>
<circle cx="209.2" cy="408.7" r="108.1"/>
<g>
	<circle cx="209.2" cy="730.5" r="108.1"/>
	<path class="st0" d="M209.2,820.6c-49.7,0-90.1-40.4-90.1-90.1c0-49.7,40.4-90.1,90.1-90.1c49.7,0,90.1,40.4,90.1,90.1
		C299.3,780.2,258.9,820.6,209.2,820.6z"/>
</g>
<g>
	<circle cx="539.3" cy="408.7" r="108.1"/>
	<path class="st0" d="M548.8,319c17.9,22,28.9,51.8,28.9,84.6c0,38.4-15,72.7-38.5,95.1c0,0,0.1,0,0.1,0c49.7,0,90.1-40.4,90.1-90.1
		C629.5,362.2,594.1,323.8,548.8,319z"/>
</g>
<g>
	<circle cx="869.4" cy="408.7" r="108.1"/>
	<path class="st0" d="M869.4,318.5c-3.1,0-6.2,0.2-9.2,0.5v179.3c3,0.3,6.1,0.5,9.2,0.5c49.7,0,90.1-40.4,90.1-90.1
		C959.6,359,919.1,318.5,869.4,318.5z"/>
</g>
<g>
	<circle cx="1199.6" cy="408.7" r="108.1"/>
	<path class="st0" d="M1289.7,408.7c0-49.7-40.4-90.1-90.1-90.1c-11.3,0-22.1,2.1-32,5.9c-13.7,21.4-22,49.4-22,80.1
		c0,36.2,11.6,68.7,29.9,90.9c7.7,2.1,15.8,3.3,24.2,3.3C1249.2,498.8,1289.7,458.4,1289.7,408.7z"/>
</g>
<g>
	<circle cx="539.3" cy="730.5" r="108.1"/>
	<path class="st0" d="M449.2,730.5c0,49.7,40.4,90.1,90.1,90.1c1,0,2,0,2.9-0.1c21.6-21.2,35.4-54.2,35.4-91.1
		c0-35.7-12.9-67.6-33.2-88.9c-1.7-0.1-3.4-0.2-5.2-0.2C489.6,640.3,449.2,680.8,449.2,730.5z"/>
</g>
<g>
	<circle cx="869.4" cy="730.5" r="108.1"/>
	<path class="st0" d="M860.2,640.8c-45.4,4.6-80.9,43.1-80.9,89.7c0,46.6,35.5,85,80.9,89.7V640.8z"/>
</g>
<g>
	<circle cx="1199.6" cy="730.5" r="108.1"/>
	<path class="st0" d="M1152.6,732.8c0-35,11-66.9,28.9-90.6c-41,8.4-72,44.8-72,88.3c0,42.1,29,77.5,68,87.4
		C1161.9,794.8,1152.6,765.1,1152.6,732.8z"/>
</g>
<text transform="matrix(1 0 0 1 270.3872 221.0093)" class="st1 st2">Moon Phases</text>
</svg>
